<?xml version="1.0" encoding="utf-8" standalone="no"?>
<!DOCTYPE svg PUBLIC "-//W3C//DTD SVG 1.1//EN"
  "http://www.w3.org/Graphics/SVG/1.1/DTD/svg11.dtd">
<svg xmlns:xlink="http://www.w3.org/1999/xlink" width="388.522974pt" height="338.4pt" viewBox="0 0 388.522974 338.4" xmlns="http://www.w3.org/2000/svg" version="1.1">
 <metadata>
  <rdf:RDF xmlns:dc="http://purl.org/dc/elements/1.1/" xmlns:cc="http://creativecommons.org/ns#" xmlns:rdf="http://www.w3.org/1999/02/22-rdf-syntax-ns#">
   <cc:Work>
    <dc:type rdf:resource="http://purl.org/dc/dcmitype/StillImage"/>
    <dc:date>2024-04-12T12:50:00.131806</dc:date>
    <dc:format>image/svg+xml</dc:format>
    <dc:creator>
     <cc:Agent>
      <dc:title>Matplotlib v3.7.3, https://matplotlib.org/</dc:title>
     </cc:Agent>
    </dc:creator>
   </cc:Work>
  </rdf:RDF>
 </metadata>
 <defs>
  <style type="text/css">*{stroke-linejoin: round; stroke-linecap: butt}</style>
 </defs>
 <g id="figure_1">
  <g id="patch_1">
   <path d="M 0 338.4 
L 388.522974 338.4 
L 388.522974 0 
L 0 0 
z
" style="fill: #ffffff"/>
  </g>
  <g id="axes_1">
   <g id="line2d_1">
    <path d="M 58.216769 301.745455 
L 49.713974 316.472727 
L 32.708385 316.472727 
L 24.20559 301.745455 
L 32.708385 287.018182 
L 49.713974 287.018182 
L 58.216769 301.745455 
" clip-path="url(#pe7801676e7)" style="fill: none; stroke: #1f77b4; stroke-width: 1.5; stroke-linecap: square"/>
   </g>
   <g id="line2d_2">
    <path d="M 109.233538 301.745455 
L 100.730744 316.472727 
L 83.725154 316.472727 
L 75.222359 301.745455 
L 83.725154 287.018182 
L 100.730744 287.018182 
L 109.233538 301.745455 
" clip-path="url(#pe7801676e7)" style="fill: none; stroke: #ff7f0e; stroke-width: 1.5; stroke-linecap: square"/>
   </g>
   <g id="line2d_3">
    <path d="M 160.250308 301.745455 
L 151.747513 316.472727 
L 134.741923 316.472727 
L 126.239128 301.745455 
L 134.741923 287.018182 
L 151.747513 287.018182 
L 160.250308 301.745455 
" clip-path="url(#pe7801676e7)" style="fill: none; stroke: #2ca02c; stroke-width: 1.5; stroke-linecap: square"/>
   </g>
   <g id="line2d_4">
    <path d="M 211.267077 301.745455 
L 202.764282 316.472727 
L 185.758692 316.472727 
L 177.255897 301.745455 
L 185.758692 287.018182 
L 202.764282 287.018182 
L 211.267077 301.745455 
" clip-path="url(#pe7801676e7)" style="fill: none; stroke: #d62728; stroke-width: 1.5; stroke-linecap: square"/>
   </g>
   <g id="line2d_5">
    <path d="M 262.283846 301.745455 
L 253.781051 316.472727 
L 236.775462 316.472727 
L 228.272667 301.745455 
L 236.775462 287.018182 
L 253.781051 287.018182 
L 262.283846 301.745455 
" clip-path="url(#pe7801676e7)" style="fill: none; stroke: #9467bd; stroke-width: 1.5; stroke-linecap: square"/>
   </g>
   <g id="line2d_6">
    <path d="M 313.300615 301.745455 
L 304.797821 316.472727 
L 287.792231 316.472727 
L 279.289436 301.745455 
L 287.792231 287.018182 
L 304.797821 287.018182 
L 313.300615 301.745455 
" clip-path="url(#pe7801676e7)" style="fill: none; stroke: #8c564b; stroke-width: 1.5; stroke-linecap: square"/>
   </g>
   <g id="line2d_7">
    <path d="M 364.317385 301.745455 
L 355.81459 316.472727 
L 338.809 316.472727 
L 330.306205 301.745455 
L 338.809 287.018182 
L 355.81459 287.018182 
L 364.317385 301.745455 
" clip-path="url(#pe7801676e7)" style="fill: none; stroke: #e377c2; stroke-width: 1.5; stroke-linecap: square"/>
   </g>
   <g id="line2d_8">
    <path d="M 83.725154 287.018182 
L 75.222359 301.745455 
L 58.216769 301.745455 
L 49.713974 287.018182 
L 58.216769 272.290909 
L 75.222359 272.290909 
L 83.725154 287.018182 
" clip-path="url(#pe7801676e7)" style="fill: none; stroke: #7f7f7f; stroke-width: 1.5; stroke-linecap: square"/>
   </g>
   <g id="line2d_9">
    <path d="M 134.741923 287.018182 
L 126.239128 301.745455 
L 109.233538 301.745455 
L 100.730744 287.018182 
L 109.233538 272.290909 
L 126.239128 272.290909 
L 134.741923 287.018182 
" clip-path="url(#pe7801676e7)" style="fill: none; stroke: #bcbd22; stroke-width: 1.5; stroke-linecap: square"/>
   </g>
   <g id="line2d_10">
    <path d="M 185.758692 287.018182 
L 177.255897 301.745455 
L 160.250308 301.745455 
L 151.747513 287.018182 
L 160.250308 272.290909 
L 177.255897 272.290909 
L 185.758692 287.018182 
" clip-path="url(#pe7801676e7)" style="fill: none; stroke: #17becf; stroke-width: 1.5; stroke-linecap: square"/>
   </g>
   <g id="line2d_11">
    <path d="M 236.775462 287.018182 
L 228.272667 301.745455 
L 211.267077 301.745455 
L 202.764282 287.018182 
L 211.267077 272.290909 
L 228.272667 272.290909 
L 236.775462 287.018182 
" clip-path="url(#pe7801676e7)" style="fill: none; stroke: #1f77b4; stroke-width: 1.5; stroke-linecap: square"/>
   </g>
   <g id="line2d_12">
    <path d="M 287.792231 287.018182 
L 279.289436 301.745455 
L 262.283846 301.745455 
L 253.781051 287.018182 
L 262.283846 272.290909 
L 279.289436 272.290909 
L 287.792231 287.018182 
" clip-path="url(#pe7801676e7)" style="fill: none; stroke: #ff7f0e; stroke-width: 1.5; stroke-linecap: square"/>
   </g>
   <g id="line2d_13">
    <path d="M 338.809 287.018182 
L 330.306205 301.745455 
L 313.300615 301.745455 
L 304.797821 287.018182 
L 313.300615 272.290909 
L 330.306205 272.290909 
L 338.809 287.018182 
" clip-path="url(#pe7801676e7)" style="fill: none; stroke: #2ca02c; stroke-width: 1.5; stroke-linecap: square"/>
   </g>
   <g id="line2d_14">
    <path d="M 109.233538 272.290909 
L 100.730744 287.018182 
L 83.725154 287.018182 
L 75.222359 272.290909 
L 83.725154 257.563636 
L 100.730744 257.563636 
L 109.233538 272.290909 
" clip-path="url(#pe7801676e7)" style="fill: none; stroke: #d62728; stroke-width: 1.5; stroke-linecap: square"/>
   </g>
   <g id="line2d_15">
    <path d="M 160.250308 272.290909 
L 151.747513 287.018182 
L 134.741923 287.018182 
L 126.239128 272.290909 
L 134.741923 257.563636 
L 151.747513 257.563636 
L 160.250308 272.290909 
" clip-path="url(#pe7801676e7)" style="fill: none; stroke: #9467bd; stroke-width: 1.5; stroke-linecap: square"/>
   </g>
   <g id="line2d_16">
    <path d="M 211.267077 272.290909 
L 202.764282 287.018182 
L 185.758692 287.018182 
L 177.255897 272.290909 
L 185.758692 257.563636 
L 202.764282 257.563636 
L 211.267077 272.290909 
" clip-path="url(#pe7801676e7)" style="fill: none; stroke: #8c564b; stroke-width: 1.5; stroke-linecap: square"/>
   </g>
   <g id="line2d_17">
    <path d="M 262.283846 272.290909 
L 253.781051 287.018182 
L 236.775462 287.018182 
L 228.272667 272.290909 
L 236.775462 257.563636 
L 253.781051 257.563636 
L 262.283846 272.290909 
" clip-path="url(#pe7801676e7)" style="fill: none; stroke: #e377c2; stroke-width: 1.5; stroke-linecap: square"/>
   </g>
   <g id="line2d_18">
    <path d="M 313.300615 272.290909 
L 304.797821 287.018182 
L 287.792231 287.018182 
L 279.289436 272.290909 
L 287.792231 257.563636 
L 304.797821 257.563636 
L 313.300615 272.290909 
" clip-path="url(#pe7801676e7)" style="fill: none; stroke: #7f7f7f; stroke-width: 1.5; stroke-linecap: square"/>
   </g>
   <g id="line2d_19">
    <path d="M 83.725154 257.563636 
L 75.222359 272.290909 
L 58.216769 272.290909 
L 49.713974 257.563636 
L 58.216769 242.836364 
L 75.222359 242.836364 
L 83.725154 257.563636 
" clip-path="url(#pe7801676e7)" style="fill: none; stroke: #bcbd22; stroke-width: 1.5; stroke-linecap: square"/>
   </g>
   <g id="line2d_20">
    <path d="M 134.741923 257.563636 
L 126.239128 272.290909 
L 109.233538 272.290909 
L 100.730744 257.563636 
L 109.233538 242.836364 
L 126.239128 242.836364 
L 134.741923 257.563636 
" clip-path="url(#pe7801676e7)" style="fill: none; stroke: #17becf; stroke-width: 1.5; stroke-linecap: square"/>
   </g>
   <g id="line2d_21">
    <path d="M 185.758692 257.563636 
L 177.255897 272.290909 
L 160.250308 272.290909 
L 151.747513 257.563636 
L 160.250308 242.836364 
L 177.255897 242.836364 
L 185.758692 257.563636 
" clip-path="url(#pe7801676e7)" style="fill: none; stroke: #1f77b4; stroke-width: 1.5; stroke-linecap: square"/>
   </g>
   <g id="line2d_22">
    <path d="M 236.775462 257.563636 
L 228.272667 272.290909 
L 211.267077 272.290909 
L 202.764282 257.563636 
L 211.267077 242.836364 
L 228.272667 242.836364 
L 236.775462 257.563636 
" clip-path="url(#pe7801676e7)" style="fill: none; stroke: #ff7f0e; stroke-width: 1.5; stroke-linecap: square"/>
   </g>
   <g id="line2d_23">
    <path d="M 287.792231 257.563636 
L 279.289436 272.290909 
L 262.283846 272.290909 
L 253.781051 257.563636 
L 262.283846 242.836364 
L 279.289436 242.836364 
L 287.792231 257.563636 
" clip-path="url(#pe7801676e7)" style="fill: none; stroke: #2ca02c; stroke-width: 1.5; stroke-linecap: square"/>
   </g>
   <g id="line2d_24">
    <path d="M 338.809 257.563636 
L 330.306205 272.290909 
L 313.300615 272.290909 
L 304.797821 257.563636 
L 313.300615 242.836364 
L 330.306205 242.836364 
L 338.809 257.563636 
" clip-path="url(#pe7801676e7)" style="fill: none; stroke: #d62728; stroke-width: 1.5; stroke-linecap: square"/>
   </g>
   <g id="line2d_25">
    <path d="M 109.233538 242.836364 
L 100.730744 257.563636 
L 83.725154 257.563636 
L 75.222359 242.836364 
L 83.725154 228.109091 
L 100.730744 228.109091 
L 109.233538 242.836364 
" clip-path="url(#pe7801676e7)" style="fill: none; stroke: #9467bd; stroke-width: 1.5; stroke-linecap: square"/>
   </g>
   <g id="line2d_26">
    <path d="M 160.250308 242.836364 
L 151.747513 257.563636 
L 134.741923 257.563636 
L 126.239128 242.836364 
L 134.741923 228.109091 
L 151.747513 228.109091 
L 160.250308 242.836364 
" clip-path="url(#pe7801676e7)" style="fill: none; stroke: #8c564b; stroke-width: 1.5; stroke-linecap: square"/>
   </g>
   <g id="line2d_27">
    <path d="M 211.267077 242.836364 
L 202.764282 257.563636 
L 185.758692 257.563636 
L 177.255897 242.836364 
L 185.758692 228.109091 
L 202.764282 228.109091 
L 211.267077 242.836364 
" clip-path="url(#pe7801676e7)" style="fill: none; stroke: #e377c2; stroke-width: 1.5; stroke-linecap: square"/>
   </g>
   <g id="line2d_28">
    <path d="M 262.283846 242.836364 
L 253.781051 257.563636 
L 236.775462 257.563636 
L 228.272667 242.836364 
L 236.775462 228.109091 
L 253.781051 228.109091 
L 262.283846 242.836364 
" clip-path="url(#pe7801676e7)" style="fill: none; stroke: #7f7f7f; stroke-width: 1.5; stroke-linecap: square"/>
   </g>
   <g id="line2d_29">
    <path d="M 313.300615 242.836364 
L 304.797821 257.563636 
L 287.792231 257.563636 
L 279.289436 242.836364 
L 287.792231 228.109091 
L 304.797821 228.109091 
L 313.300615 242.836364 
" clip-path="url(#pe7801676e7)" style="fill: none; stroke: #bcbd22; stroke-width: 1.5; stroke-linecap: square"/>
   </g>
   <g id="line2d_30">
    <path d="M 134.741923 228.109091 
L 126.239128 242.836364 
L 109.233538 242.836364 
L 100.730744 228.109091 
L 109.233538 213.381818 
L 126.239128 213.381818 
L 134.741923 228.109091 
" clip-path="url(#pe7801676e7)" style="fill: none; stroke: #17becf; stroke-width: 1.5; stroke-linecap: square"/>
   </g>
   <g id="line2d_31">
    <path d="M 185.758692 228.109091 
L 177.255897 242.836364 
L 160.250308 242.836364 
L 151.747513 228.109091 
L 160.250308 213.381818 
L 177.255897 213.381818 
L 185.758692 228.109091 
" clip-path="url(#pe7801676e7)" style="fill: none; stroke: #1f77b4; stroke-width: 1.5; stroke-linecap: square"/>
   </g>
   <g id="line2d_32">
    <path d="M 236.775462 228.109091 
L 228.272667 242.836364 
L 211.267077 242.836364 
L 202.764282 228.109091 
L 211.267077 213.381818 
L 228.272667 213.381818 
L 236.775462 228.109091 
" clip-path="url(#pe7801676e7)" style="fill: none; stroke: #ff7f0e; stroke-width: 1.5; stroke-linecap: square"/>
   </g>
   <g id="line2d_33">
    <path d="M 287.792231 228.109091 
L 279.289436 242.836364 
L 262.283846 242.836364 
L 253.781051 228.109091 
L 262.283846 213.381818 
L 279.289436 213.381818 
L 287.792231 228.109091 
" clip-path="url(#pe7801676e7)" style="fill: none; stroke: #2ca02c; stroke-width: 1.5; stroke-linecap: square"/>
   </g>
   <g id="line2d_34">
    <path d="M 109.233538 213.381818 
L 100.730744 228.109091 
L 83.725154 228.109091 
L 75.222359 213.381818 
L 83.725154 198.654545 
L 100.730744 198.654545 
L 109.233538 213.381818 
" clip-path="url(#pe7801676e7)" style="fill: none; stroke: #d62728; stroke-width: 1.5; stroke-linecap: square"/>
   </g>
   <g id="line2d_35">
    <path d="M 160.250308 213.381818 
L 151.747513 228.109091 
L 134.741923 228.109091 
L 126.239128 213.381818 
L 134.741923 198.654545 
L 151.747513 198.654545 
L 160.250308 213.381818 
" clip-path="url(#pe7801676e7)" style="fill: none; stroke: #9467bd; stroke-width: 1.5; stroke-linecap: square"/>
   </g>
   <g id="line2d_36">
    <path d="M 211.267077 213.381818 
L 202.764282 228.109091 
L 185.758692 228.109091 
L 177.255897 213.381818 
L 185.758692 198.654545 
L 202.764282 198.654545 
L 211.267077 213.381818 
" clip-path="url(#pe7801676e7)" style="fill: none; stroke: #8c564b; stroke-width: 1.5; stroke-linecap: square"/>
   </g>
   <g id="line2d_37">
    <path d="M 262.283846 213.381818 
L 253.781051 228.109091 
L 236.775462 228.109091 
L 228.272667 213.381818 
L 236.775462 198.654545 
L 253.781051 198.654545 
L 262.283846 213.381818 
" clip-path="url(#pe7801676e7)" style="fill: none; stroke: #e377c2; stroke-width: 1.5; stroke-linecap: square"/>
   </g>
   <g id="line2d_38">
    <path d="M 313.300615 213.381818 
L 304.797821 228.109091 
L 287.792231 228.109091 
L 279.289436 213.381818 
L 287.792231 198.654545 
L 304.797821 198.654545 
L 313.300615 213.381818 
" clip-path="url(#pe7801676e7)" style="fill: none; stroke: #7f7f7f; stroke-width: 1.5; stroke-linecap: square"/>
   </g>
   <g id="line2d_39">
    <path d="M 134.741923 198.654545 
L 126.239128 213.381818 
L 109.233538 213.381818 
L 100.730744 198.654545 
L 109.233538 183.927273 
L 126.239128 183.927273 
L 134.741923 198.654545 
" clip-path="url(#pe7801676e7)" style="fill: none; stroke: #bcbd22; stroke-width: 1.5; stroke-linecap: square"/>
   </g>
   <g id="line2d_40">
    <path d="M 185.758692 198.654545 
L 177.255897 213.381818 
L 160.250308 213.381818 
L 151.747513 198.654545 
L 160.250308 183.927273 
L 177.255897 183.927273 
L 185.758692 198.654545 
" clip-path="url(#pe7801676e7)" style="fill: none; stroke: #17becf; stroke-width: 1.5; stroke-linecap: square"/>
   </g>
   <g id="line2d_41">
    <path d="M 236.775462 198.654545 
L 228.272667 213.381818 
L 211.267077 213.381818 
L 202.764282 198.654545 
L 211.267077 183.927273 
L 228.272667 183.927273 
L 236.775462 198.654545 
" clip-path="url(#pe7801676e7)" style="fill: none; stroke: #1f77b4; stroke-width: 1.5; stroke-linecap: square"/>
   </g>
   <g id="line2d_42">
    <path d="M 287.792231 198.654545 
L 279.289436 213.381818 
L 262.283846 213.381818 
L 253.781051 198.654545 
L 262.283846 183.927273 
L 279.289436 183.927273 
L 287.792231 198.654545 
" clip-path="url(#pe7801676e7)" style="fill: none; stroke: #ff7f0e; stroke-width: 1.5; stroke-linecap: square"/>
   </g>
   <g id="line2d_43">
    <path d="M 160.250308 183.927273 
L 151.747513 198.654545 
L 134.741923 198.654545 
L 126.239128 183.927273 
L 134.741923 169.2 
L 151.747513 169.2 
L 160.250308 183.927273 
" clip-path="url(#pe7801676e7)" style="fill: none; stroke: #2ca02c; stroke-width: 1.5; stroke-linecap: square"/>
   </g>
   <g id="line2d_44">
    <path d="M 211.267077 183.927273 
L 202.764282 198.654545 
L 185.758692 198.654545 
L 177.255897 183.927273 
L 185.758692 169.2 
L 202.764282 169.2 
L 211.267077 183.927273 
" clip-path="url(#pe7801676e7)" style="fill: none; stroke: #d62728; stroke-width: 1.5; stroke-linecap: square"/>
   </g>
   <g id="line2d_45">
    <path d="M 262.283846 183.927273 
L 253.781051 198.654545 
L 236.775462 198.654545 
L 228.272667 183.927273 
L 236.775462 169.2 
L 253.781051 169.2 
L 262.283846 183.927273 
" clip-path="url(#pe7801676e7)" style="fill: none; stroke: #9467bd; stroke-width: 1.5; stroke-linecap: square"/>
   </g>
   <g id="line2d_46">
    <path d="M 134.741923 169.2 
L 126.239128 183.927273 
L 109.233538 183.927273 
L 100.730744 169.2 
L 109.233538 154.472727 
L 126.239128 154.472727 
L 134.741923 169.2 
" clip-path="url(#pe7801676e7)" style="fill: none; stroke: #8c564b; stroke-width: 1.5; stroke-linecap: square"/>
   </g>
   <g id="line2d_47">
    <path d="M 185.758692 169.2 
L 177.255897 183.927273 
L 160.250308 183.927273 
L 151.747513 169.2 
L 160.250308 154.472727 
L 177.255897 154.472727 
L 185.758692 169.2 
" clip-path="url(#pe7801676e7)" style="fill: none; stroke: #e377c2; stroke-width: 1.5; stroke-linecap: square"/>
   </g>
   <g id="line2d_48">
    <path d="M 236.775462 169.2 
L 228.272667 183.927273 
L 211.267077 183.927273 
L 202.764282 169.2 
L 211.267077 154.472727 
L 228.272667 154.472727 
L 236.775462 169.2 
" clip-path="url(#pe7801676e7)" style="fill: none; stroke: #7f7f7f; stroke-width: 1.5; stroke-linecap: square"/>
   </g>
   <g id="line2d_49">
    <path d="M 287.792231 169.2 
L 279.289436 183.927273 
L 262.283846 183.927273 
L 253.781051 169.2 
L 262.283846 154.472727 
L 279.289436 154.472727 
L 287.792231 169.2 
" clip-path="url(#pe7801676e7)" style="fill: none; stroke: #bcbd22; stroke-width: 1.5; stroke-linecap: square"/>
   </g>
   <g id="line2d_50">
    <path d="M 160.250308 154.472727 
L 151.747513 169.2 
L 134.741923 169.2 
L 126.239128 154.472727 
L 134.741923 139.745455 
L 151.747513 139.745455 
L 160.250308 154.472727 
" clip-path="url(#pe7801676e7)" style="fill: none; stroke: #17becf; stroke-width: 1.5; stroke-linecap: square"/>
   </g>
   <g id="line2d_51">
    <path d="M 211.267077 154.472727 
L 202.764282 169.2 
L 185.758692 169.2 
L 177.255897 154.472727 
L 185.758692 139.745455 
L 202.764282 139.745455 
L 211.267077 154.472727 
" clip-path="url(#pe7801676e7)" style="fill: none; stroke: #1f77b4; stroke-width: 1.5; stroke-linecap: square"/>
   </g>
   <g id="line2d_52">
    <path d="M 262.283846 154.472727 
L 253.781051 169.2 
L 236.775462 169.2 
L 228.272667 154.472727 
L 236.775462 139.745455 
L 253.781051 139.745455 
L 262.283846 154.472727 
" clip-path="url(#pe7801676e7)" style="fill: none; stroke: #ff7f0e; stroke-width: 1.5; stroke-linecap: square"/>
   </g>
   <g id="line2d_53">
    <path d="M 185.758692 139.745455 
L 177.255897 154.472727 
L 160.250308 154.472727 
L 151.747513 139.745455 
L 160.250308 125.018182 
L 177.255897 125.018182 
L 185.758692 139.745455 
" clip-path="url(#pe7801676e7)" style="fill: none; stroke: #2ca02c; stroke-width: 1.5; stroke-linecap: square"/>
   </g>
   <g id="line2d_54">
    <path d="M 236.775462 139.745455 
L 228.272667 154.472727 
L 211.267077 154.472727 
L 202.764282 139.745455 
L 211.267077 125.018182 
L 228.272667 125.018182 
L 236.775462 139.745455 
" clip-path="url(#pe7801676e7)" style="fill: none; stroke: #d62728; stroke-width: 1.5; stroke-linecap: square"/>
   </g>
   <g id="line2d_55">
    <path d="M 160.250308 125.018182 
L 151.747513 139.745455 
L 134.741923 139.745455 
L 126.239128 125.018182 
L 134.741923 110.290909 
L 151.747513 110.290909 
L 160.250308 125.018182 
" clip-path="url(#pe7801676e7)" style="fill: none; stroke: #9467bd; stroke-width: 1.5; stroke-linecap: square"/>
   </g>
   <g id="line2d_56">
    <path d="M 211.267077 125.018182 
L 202.764282 139.745455 
L 185.758692 139.745455 
L 177.255897 125.018182 
L 185.758692 110.290909 
L 202.764282 110.290909 
L 211.267077 125.018182 
" clip-path="url(#pe7801676e7)" style="fill: none; stroke: #8c564b; stroke-width: 1.5; stroke-linecap: square"/>
   </g>
   <g id="line2d_57">
    <path d="M 262.283846 125.018182 
L 253.781051 139.745455 
L 236.775462 139.745455 
L 228.272667 125.018182 
L 236.775462 110.290909 
L 253.781051 110.290909 
L 262.283846 125.018182 
" clip-path="url(#pe7801676e7)" style="fill: none; stroke: #e377c2; stroke-width: 1.5; stroke-linecap: square"/>
   </g>
   <g id="line2d_58">
    <path d="M 185.758692 110.290909 
L 177.255897 125.018182 
L 160.250308 125.018182 
L 151.747513 110.290909 
L 160.250308 95.563636 
L 177.255897 95.563636 
L 185.758692 110.290909 
" clip-path="url(#pe7801676e7)" style="fill: none; stroke: #7f7f7f; stroke-width: 1.5; stroke-linecap: square"/>
   </g>
   <g id="line2d_59">
    <path d="M 236.775462 110.290909 
L 228.272667 125.018182 
L 211.267077 125.018182 
L 202.764282 110.290909 
L 211.267077 95.563636 
L 228.272667 95.563636 
L 236.775462 110.290909 
" clip-path="url(#pe7801676e7)" style="fill: none; stroke: #bcbd22; stroke-width: 1.5; stroke-linecap: square"/>
   </g>
   <g id="line2d_60">
    <path d="M 211.267077 95.563636 
L 202.764282 110.290909 
L 185.758692 110.290909 
L 177.255897 95.563636 
L 185.758692 80.836364 
L 202.764282 80.836364 
L 211.267077 95.563636 
" clip-path="url(#pe7801676e7)" style="fill: none; stroke: #17becf; stroke-width: 1.5; stroke-linecap: square"/>
   </g>
   <g id="line2d_61">
    <path d="M 185.758692 80.836364 
L 177.255897 95.563636 
L 160.250308 95.563636 
L 151.747513 80.836364 
L 160.250308 66.109091 
L 177.255897 66.109091 
L 185.758692 80.836364 
" clip-path="url(#pe7801676e7)" style="fill: none; stroke: #1f77b4; stroke-width: 1.5; stroke-linecap: square"/>
   </g>
   <g id="line2d_62">
    <path d="M 236.775462 80.836364 
L 228.272667 95.563636 
L 211.267077 95.563636 
L 202.764282 80.836364 
L 211.267077 66.109091 
L 228.272667 66.109091 
L 236.775462 80.836364 
" clip-path="url(#pe7801676e7)" style="fill: none; stroke: #ff7f0e; stroke-width: 1.5; stroke-linecap: square"/>
   </g>
   <g id="line2d_63">
    <path d="M 211.267077 66.109091 
L 202.764282 80.836364 
L 185.758692 80.836364 
L 177.255897 66.109091 
L 185.758692 51.381818 
L 202.764282 51.381818 
L 211.267077 66.109091 
" clip-path="url(#pe7801676e7)" style="fill: none; stroke: #2ca02c; stroke-width: 1.5; stroke-linecap: square"/>
   </g>
   <g id="line2d_64">
    <path d="M 211.267077 36.654545 
L 202.764282 51.381818 
L 185.758692 51.381818 
L 177.255897 36.654545 
L 185.758692 21.927273 
L 202.764282 21.927273 
L 211.267077 36.654545 
" clip-path="url(#pe7801676e7)" style="fill: none; stroke: #d62728; stroke-width: 1.5; stroke-linecap: square"/>
   </g>
   <g id="text_1">
    <!-- 0 -->
    <g transform="translate(39.938679 300.609642) scale(0.04 -0.04)">
     <defs>
      <path id="DejaVuSans-30" d="M 2034 4250 
Q 1547 4250 1301 3770 
Q 1056 3291 1056 2328 
Q 1056 1369 1301 889 
Q 1547 409 2034 409 
Q 2525 409 2770 889 
Q 3016 1369 3016 2328 
Q 3016 3291 2770 3770 
Q 2525 4250 2034 4250 
z
M 2034 4750 
Q 2819 4750 3233 4129 
Q 3647 3509 3647 2328 
Q 3647 1150 3233 529 
Q 2819 -91 2034 -91 
Q 1250 -91 836 529 
Q 422 1150 422 2328 
Q 422 3509 836 4129 
Q 1250 4750 2034 4750 
z
" transform="scale(0.015625)"/>
     </defs>
     <use xlink:href="#DejaVuSans-30"/>
    </g>
    <!-- (0,0) -->
    <g transform="translate(36.469929 305.088767) scale(0.04 -0.04)">
     <defs>
      <path id="DejaVuSans-28" d="M 1984 4856 
Q 1566 4138 1362 3434 
Q 1159 2731 1159 2009 
Q 1159 1288 1364 580 
Q 1569 -128 1984 -844 
L 1484 -844 
Q 1016 -109 783 600 
Q 550 1309 550 2009 
Q 550 2706 781 3412 
Q 1013 4119 1484 4856 
L 1984 4856 
z
" transform="scale(0.015625)"/>
      <path id="DejaVuSans-2c" d="M 750 794 
L 1409 794 
L 1409 256 
L 897 -744 
L 494 -744 
L 750 256 
L 750 794 
z
" transform="scale(0.015625)"/>
      <path id="DejaVuSans-29" d="M 513 4856 
L 1013 4856 
Q 1481 4119 1714 3412 
Q 1947 2706 1947 2009 
Q 1947 1309 1714 600 
Q 1481 -109 1013 -844 
L 513 -844 
Q 928 -128 1133 580 
Q 1338 1288 1338 2009 
Q 1338 2731 1133 3434 
Q 928 4138 513 4856 
z
" transform="scale(0.015625)"/>
     </defs>
     <use xlink:href="#DejaVuSans-28"/>
     <use xlink:href="#DejaVuSans-30" x="39.013672"/>
     <use xlink:href="#DejaVuSans-2c" x="102.636719"/>
     <use xlink:href="#DejaVuSans-30" x="134.423828"/>
     <use xlink:href="#DejaVuSans-29" x="198.046875"/>
    </g>
   </g>
   <g id="text_2">
    <!-- 1 -->
    <g transform="translate(90.955449 300.609642) scale(0.04 -0.04)">
     <defs>
      <path id="DejaVuSans-31" d="M 794 531 
L 1825 531 
L 1825 4091 
L 703 3866 
L 703 4441 
L 1819 4666 
L 2450 4666 
L 2450 531 
L 3481 531 
L 3481 0 
L 794 0 
L 794 531 
z
" transform="scale(0.015625)"/>
     </defs>
     <use xlink:href="#DejaVuSans-31"/>
    </g>
    <!-- (0,2) -->
    <g transform="translate(87.486699 305.088767) scale(0.04 -0.04)">
     <defs>
      <path id="DejaVuSans-32" d="M 1228 531 
L 3431 531 
L 3431 0 
L 469 0 
L 469 531 
Q 828 903 1448 1529 
Q 2069 2156 2228 2338 
Q 2531 2678 2651 2914 
Q 2772 3150 2772 3378 
Q 2772 3750 2511 3984 
Q 2250 4219 1831 4219 
Q 1534 4219 1204 4116 
Q 875 4013 500 3803 
L 500 4441 
Q 881 4594 1212 4672 
Q 1544 4750 1819 4750 
Q 2544 4750 2975 4387 
Q 3406 4025 3406 3419 
Q 3406 3131 3298 2873 
Q 3191 2616 2906 2266 
Q 2828 2175 2409 1742 
Q 1991 1309 1228 531 
z
" transform="scale(0.015625)"/>
     </defs>
     <use xlink:href="#DejaVuSans-28"/>
     <use xlink:href="#DejaVuSans-30" x="39.013672"/>
     <use xlink:href="#DejaVuSans-2c" x="102.636719"/>
     <use xlink:href="#DejaVuSans-32" x="134.423828"/>
     <use xlink:href="#DejaVuSans-29" x="198.046875"/>
    </g>
   </g>
   <g id="text_3">
    <!-- 2 -->
    <g transform="translate(141.972218 300.609642) scale(0.04 -0.04)">
     <use xlink:href="#DejaVuSans-32"/>
    </g>
    <!-- (0,4) -->
    <g transform="translate(138.503468 305.088767) scale(0.04 -0.04)">
     <defs>
      <path id="DejaVuSans-34" d="M 2419 4116 
L 825 1625 
L 2419 1625 
L 2419 4116 
z
M 2253 4666 
L 3047 4666 
L 3047 1625 
L 3713 1625 
L 3713 1100 
L 3047 1100 
L 3047 0 
L 2419 0 
L 2419 1100 
L 313 1100 
L 313 1709 
L 2253 4666 
z
" transform="scale(0.015625)"/>
     </defs>
     <use xlink:href="#DejaVuSans-28"/>
     <use xlink:href="#DejaVuSans-30" x="39.013672"/>
     <use xlink:href="#DejaVuSans-2c" x="102.636719"/>
     <use xlink:href="#DejaVuSans-34" x="134.423828"/>
     <use xlink:href="#DejaVuSans-29" x="198.046875"/>
    </g>
   </g>
   <g id="text_4">
    <!-- 3 -->
    <g transform="translate(192.988987 300.609642) scale(0.04 -0.04)">
     <defs>
      <path id="DejaVuSans-33" d="M 2597 2516 
Q 3050 2419 3304 2112 
Q 3559 1806 3559 1356 
Q 3559 666 3084 287 
Q 2609 -91 1734 -91 
Q 1441 -91 1130 -33 
Q 819 25 488 141 
L 488 750 
Q 750 597 1062 519 
Q 1375 441 1716 441 
Q 2309 441 2620 675 
Q 2931 909 2931 1356 
Q 2931 1769 2642 2001 
Q 2353 2234 1838 2234 
L 1294 2234 
L 1294 2753 
L 1863 2753 
Q 2328 2753 2575 2939 
Q 2822 3125 2822 3475 
Q 2822 3834 2567 4026 
Q 2313 4219 1838 4219 
Q 1578 4219 1281 4162 
Q 984 4106 628 3988 
L 628 4550 
Q 988 4650 1302 4700 
Q 1616 4750 1894 4750 
Q 2613 4750 3031 4423 
Q 3450 4097 3450 3541 
Q 3450 3153 3228 2886 
Q 3006 2619 2597 2516 
z
" transform="scale(0.015625)"/>
     </defs>
     <use xlink:href="#DejaVuSans-33"/>
    </g>
    <!-- (0,6) -->
    <g transform="translate(189.520237 305.088767) scale(0.04 -0.04)">
     <defs>
      <path id="DejaVuSans-36" d="M 2113 2584 
Q 1688 2584 1439 2293 
Q 1191 2003 1191 1497 
Q 1191 994 1439 701 
Q 1688 409 2113 409 
Q 2538 409 2786 701 
Q 3034 994 3034 1497 
Q 3034 2003 2786 2293 
Q 2538 2584 2113 2584 
z
M 3366 4563 
L 3366 3988 
Q 3128 4100 2886 4159 
Q 2644 4219 2406 4219 
Q 1781 4219 1451 3797 
Q 1122 3375 1075 2522 
Q 1259 2794 1537 2939 
Q 1816 3084 2150 3084 
Q 2853 3084 3261 2657 
Q 3669 2231 3669 1497 
Q 3669 778 3244 343 
Q 2819 -91 2113 -91 
Q 1303 -91 875 529 
Q 447 1150 447 2328 
Q 447 3434 972 4092 
Q 1497 4750 2381 4750 
Q 2619 4750 2861 4703 
Q 3103 4656 3366 4563 
z
" transform="scale(0.015625)"/>
     </defs>
     <use xlink:href="#DejaVuSans-28"/>
     <use xlink:href="#DejaVuSans-30" x="39.013672"/>
     <use xlink:href="#DejaVuSans-2c" x="102.636719"/>
     <use xlink:href="#DejaVuSans-36" x="134.423828"/>
     <use xlink:href="#DejaVuSans-29" x="198.046875"/>
    </g>
   </g>
   <g id="text_5">
    <!-- 4 -->
    <g transform="translate(244.005756 300.609642) scale(0.04 -0.04)">
     <use xlink:href="#DejaVuSans-34"/>
    </g>
    <!-- (0,8) -->
    <g transform="translate(240.537006 305.088767) scale(0.04 -0.04)">
     <defs>
      <path id="DejaVuSans-38" d="M 2034 2216 
Q 1584 2216 1326 1975 
Q 1069 1734 1069 1313 
Q 1069 891 1326 650 
Q 1584 409 2034 409 
Q 2484 409 2743 651 
Q 3003 894 3003 1313 
Q 3003 1734 2745 1975 
Q 2488 2216 2034 2216 
z
M 1403 2484 
Q 997 2584 770 2862 
Q 544 3141 544 3541 
Q 544 4100 942 4425 
Q 1341 4750 2034 4750 
Q 2731 4750 3128 4425 
Q 3525 4100 3525 3541 
Q 3525 3141 3298 2862 
Q 3072 2584 2669 2484 
Q 3125 2378 3379 2068 
Q 3634 1759 3634 1313 
Q 3634 634 3220 271 
Q 2806 -91 2034 -91 
Q 1263 -91 848 271 
Q 434 634 434 1313 
Q 434 1759 690 2068 
Q 947 2378 1403 2484 
z
M 1172 3481 
Q 1172 3119 1398 2916 
Q 1625 2713 2034 2713 
Q 2441 2713 2670 2916 
Q 2900 3119 2900 3481 
Q 2900 3844 2670 4047 
Q 2441 4250 2034 4250 
Q 1625 4250 1398 4047 
Q 1172 3844 1172 3481 
z
" transform="scale(0.015625)"/>
     </defs>
     <use xlink:href="#DejaVuSans-28"/>
     <use xlink:href="#DejaVuSans-30" x="39.013672"/>
     <use xlink:href="#DejaVuSans-2c" x="102.636719"/>
     <use xlink:href="#DejaVuSans-38" x="134.423828"/>
     <use xlink:href="#DejaVuSans-29" x="198.046875"/>
    </g>
   </g>
   <g id="text_6">
    <!-- 5 -->
    <g transform="translate(295.022526 300.609642) scale(0.04 -0.04)">
     <defs>
      <path id="DejaVuSans-35" d="M 691 4666 
L 3169 4666 
L 3169 4134 
L 1269 4134 
L 1269 2991 
Q 1406 3038 1543 3061 
Q 1681 3084 1819 3084 
Q 2600 3084 3056 2656 
Q 3513 2228 3513 1497 
Q 3513 744 3044 326 
Q 2575 -91 1722 -91 
Q 1428 -91 1123 -41 
Q 819 9 494 109 
L 494 744 
Q 775 591 1075 516 
Q 1375 441 1709 441 
Q 2250 441 2565 725 
Q 2881 1009 2881 1497 
Q 2881 1984 2565 2268 
Q 2250 2553 1709 2553 
Q 1456 2553 1204 2497 
Q 953 2441 691 2322 
L 691 4666 
z
" transform="scale(0.015625)"/>
     </defs>
     <use xlink:href="#DejaVuSans-35"/>
    </g>
    <!-- (0,10) -->
    <g transform="translate(290.281276 305.088767) scale(0.04 -0.04)">
     <use xlink:href="#DejaVuSans-28"/>
     <use xlink:href="#DejaVuSans-30" x="39.013672"/>
     <use xlink:href="#DejaVuSans-2c" x="102.636719"/>
     <use xlink:href="#DejaVuSans-31" x="134.423828"/>
     <use xlink:href="#DejaVuSans-30" x="198.046875"/>
     <use xlink:href="#DejaVuSans-29" x="261.669922"/>
    </g>
   </g>
   <g id="text_7">
    <!-- 6 -->
    <g transform="translate(346.039295 300.609642) scale(0.04 -0.04)">
     <use xlink:href="#DejaVuSans-36"/>
    </g>
    <!-- (0,12) -->
    <g transform="translate(341.298045 305.088767) scale(0.04 -0.04)">
     <use xlink:href="#DejaVuSans-28"/>
     <use xlink:href="#DejaVuSans-30" x="39.013672"/>
     <use xlink:href="#DejaVuSans-2c" x="102.636719"/>
     <use xlink:href="#DejaVuSans-31" x="134.423828"/>
     <use xlink:href="#DejaVuSans-32" x="198.046875"/>
     <use xlink:href="#DejaVuSans-29" x="261.669922"/>
    </g>
   </g>
   <g id="text_8">
    <!-- 7 -->
    <g transform="translate(65.447064 285.882369) scale(0.04 -0.04)">
     <defs>
      <path id="DejaVuSans-37" d="M 525 4666 
L 3525 4666 
L 3525 4397 
L 1831 0 
L 1172 0 
L 2766 4134 
L 525 4134 
L 525 4666 
z
" transform="scale(0.015625)"/>
     </defs>
     <use xlink:href="#DejaVuSans-37"/>
    </g>
    <!-- (0,1) -->
    <g transform="translate(61.978314 290.361494) scale(0.04 -0.04)">
     <use xlink:href="#DejaVuSans-28"/>
     <use xlink:href="#DejaVuSans-30" x="39.013672"/>
     <use xlink:href="#DejaVuSans-2c" x="102.636719"/>
     <use xlink:href="#DejaVuSans-31" x="134.423828"/>
     <use xlink:href="#DejaVuSans-29" x="198.046875"/>
    </g>
   </g>
   <g id="text_9">
    <!-- 8 -->
    <g transform="translate(116.463833 285.882369) scale(0.04 -0.04)">
     <use xlink:href="#DejaVuSans-38"/>
    </g>
    <!-- (0,3) -->
    <g transform="translate(112.995083 290.361494) scale(0.04 -0.04)">
     <use xlink:href="#DejaVuSans-28"/>
     <use xlink:href="#DejaVuSans-30" x="39.013672"/>
     <use xlink:href="#DejaVuSans-2c" x="102.636719"/>
     <use xlink:href="#DejaVuSans-33" x="134.423828"/>
     <use xlink:href="#DejaVuSans-29" x="198.046875"/>
    </g>
   </g>
   <g id="text_10">
    <!-- 9 -->
    <g transform="translate(167.480603 285.882369) scale(0.04 -0.04)">
     <defs>
      <path id="DejaVuSans-39" d="M 703 97 
L 703 672 
Q 941 559 1184 500 
Q 1428 441 1663 441 
Q 2288 441 2617 861 
Q 2947 1281 2994 2138 
Q 2813 1869 2534 1725 
Q 2256 1581 1919 1581 
Q 1219 1581 811 2004 
Q 403 2428 403 3163 
Q 403 3881 828 4315 
Q 1253 4750 1959 4750 
Q 2769 4750 3195 4129 
Q 3622 3509 3622 2328 
Q 3622 1225 3098 567 
Q 2575 -91 1691 -91 
Q 1453 -91 1209 -44 
Q 966 3 703 97 
z
M 1959 2075 
Q 2384 2075 2632 2365 
Q 2881 2656 2881 3163 
Q 2881 3666 2632 3958 
Q 2384 4250 1959 4250 
Q 1534 4250 1286 3958 
Q 1038 3666 1038 3163 
Q 1038 2656 1286 2365 
Q 1534 2075 1959 2075 
z
" transform="scale(0.015625)"/>
     </defs>
     <use xlink:href="#DejaVuSans-39"/>
    </g>
    <!-- (0,5) -->
    <g transform="translate(164.011853 290.361494) scale(0.04 -0.04)">
     <use xlink:href="#DejaVuSans-28"/>
     <use xlink:href="#DejaVuSans-30" x="39.013672"/>
     <use xlink:href="#DejaVuSans-2c" x="102.636719"/>
     <use xlink:href="#DejaVuSans-35" x="134.423828"/>
     <use xlink:href="#DejaVuSans-29" x="198.046875"/>
    </g>
   </g>
   <g id="text_11">
    <!-- 10 -->
    <g transform="translate(217.224872 285.882369) scale(0.04 -0.04)">
     <use xlink:href="#DejaVuSans-31"/>
     <use xlink:href="#DejaVuSans-30" x="63.623047"/>
    </g>
    <!-- (0,7) -->
    <g transform="translate(215.028622 290.361494) scale(0.04 -0.04)">
     <use xlink:href="#DejaVuSans-28"/>
     <use xlink:href="#DejaVuSans-30" x="39.013672"/>
     <use xlink:href="#DejaVuSans-2c" x="102.636719"/>
     <use xlink:href="#DejaVuSans-37" x="134.423828"/>
     <use xlink:href="#DejaVuSans-29" x="198.046875"/>
    </g>
   </g>
   <g id="text_12">
    <!-- 11 -->
    <g transform="translate(268.241641 285.882369) scale(0.04 -0.04)">
     <use xlink:href="#DejaVuSans-31"/>
     <use xlink:href="#DejaVuSans-31" x="63.623047"/>
    </g>
    <!-- (0,9) -->
    <g transform="translate(266.045391 290.361494) scale(0.04 -0.04)">
     <use xlink:href="#DejaVuSans-28"/>
     <use xlink:href="#DejaVuSans-30" x="39.013672"/>
     <use xlink:href="#DejaVuSans-2c" x="102.636719"/>
     <use xlink:href="#DejaVuSans-39" x="134.423828"/>
     <use xlink:href="#DejaVuSans-29" x="198.046875"/>
    </g>
   </g>
   <g id="text_13">
    <!-- 12 -->
    <g transform="translate(319.25841 285.882369) scale(0.04 -0.04)">
     <use xlink:href="#DejaVuSans-31"/>
     <use xlink:href="#DejaVuSans-32" x="63.623047"/>
    </g>
    <!-- (0,11) -->
    <g transform="translate(315.78966 290.361494) scale(0.04 -0.04)">
     <use xlink:href="#DejaVuSans-28"/>
     <use xlink:href="#DejaVuSans-30" x="39.013672"/>
     <use xlink:href="#DejaVuSans-2c" x="102.636719"/>
     <use xlink:href="#DejaVuSans-31" x="134.423828"/>
     <use xlink:href="#DejaVuSans-31" x="198.046875"/>
     <use xlink:href="#DejaVuSans-29" x="261.669922"/>
    </g>
   </g>
   <g id="text_14">
    <!-- 13 -->
    <g transform="translate(89.682949 271.155097) scale(0.04 -0.04)">
     <use xlink:href="#DejaVuSans-31"/>
     <use xlink:href="#DejaVuSans-33" x="63.623047"/>
    </g>
    <!-- (1,2) -->
    <g transform="translate(87.486699 275.634222) scale(0.04 -0.04)">
     <use xlink:href="#DejaVuSans-28"/>
     <use xlink:href="#DejaVuSans-31" x="39.013672"/>
     <use xlink:href="#DejaVuSans-2c" x="102.636719"/>
     <use xlink:href="#DejaVuSans-32" x="134.423828"/>
     <use xlink:href="#DejaVuSans-29" x="198.046875"/>
    </g>
   </g>
   <g id="text_15">
    <!-- 14 -->
    <g transform="translate(140.699718 271.155097) scale(0.04 -0.04)">
     <use xlink:href="#DejaVuSans-31"/>
     <use xlink:href="#DejaVuSans-34" x="63.623047"/>
    </g>
    <!-- (1,4) -->
    <g transform="translate(138.503468 275.634222) scale(0.04 -0.04)">
     <use xlink:href="#DejaVuSans-28"/>
     <use xlink:href="#DejaVuSans-31" x="39.013672"/>
     <use xlink:href="#DejaVuSans-2c" x="102.636719"/>
     <use xlink:href="#DejaVuSans-34" x="134.423828"/>
     <use xlink:href="#DejaVuSans-29" x="198.046875"/>
    </g>
   </g>
   <g id="text_16">
    <!-- 15 -->
    <g transform="translate(191.716487 271.155097) scale(0.04 -0.04)">
     <use xlink:href="#DejaVuSans-31"/>
     <use xlink:href="#DejaVuSans-35" x="63.623047"/>
    </g>
    <!-- (1,6) -->
    <g transform="translate(189.520237 275.634222) scale(0.04 -0.04)">
     <use xlink:href="#DejaVuSans-28"/>
     <use xlink:href="#DejaVuSans-31" x="39.013672"/>
     <use xlink:href="#DejaVuSans-2c" x="102.636719"/>
     <use xlink:href="#DejaVuSans-36" x="134.423828"/>
     <use xlink:href="#DejaVuSans-29" x="198.046875"/>
    </g>
   </g>
   <g id="text_17">
    <!-- 16 -->
    <g transform="translate(242.733256 271.155097) scale(0.04 -0.04)">
     <use xlink:href="#DejaVuSans-31"/>
     <use xlink:href="#DejaVuSans-36" x="63.623047"/>
    </g>
    <!-- (1,8) -->
    <g transform="translate(240.537006 275.634222) scale(0.04 -0.04)">
     <use xlink:href="#DejaVuSans-28"/>
     <use xlink:href="#DejaVuSans-31" x="39.013672"/>
     <use xlink:href="#DejaVuSans-2c" x="102.636719"/>
     <use xlink:href="#DejaVuSans-38" x="134.423828"/>
     <use xlink:href="#DejaVuSans-29" x="198.046875"/>
    </g>
   </g>
   <g id="text_18">
    <!-- 17 -->
    <g transform="translate(293.750026 271.155097) scale(0.04 -0.04)">
     <use xlink:href="#DejaVuSans-31"/>
     <use xlink:href="#DejaVuSans-37" x="63.623047"/>
    </g>
    <!-- (1,10) -->
    <g transform="translate(290.281276 275.634222) scale(0.04 -0.04)">
     <use xlink:href="#DejaVuSans-28"/>
     <use xlink:href="#DejaVuSans-31" x="39.013672"/>
     <use xlink:href="#DejaVuSans-2c" x="102.636719"/>
     <use xlink:href="#DejaVuSans-31" x="134.423828"/>
     <use xlink:href="#DejaVuSans-30" x="198.046875"/>
     <use xlink:href="#DejaVuSans-29" x="261.669922"/>
    </g>
   </g>
   <g id="text_19">
    <!-- 18 -->
    <g transform="translate(64.174564 256.427824) scale(0.04 -0.04)">
     <use xlink:href="#DejaVuSans-31"/>
     <use xlink:href="#DejaVuSans-38" x="63.623047"/>
    </g>
    <!-- (1,1) -->
    <g transform="translate(61.978314 260.906949) scale(0.04 -0.04)">
     <use xlink:href="#DejaVuSans-28"/>
     <use xlink:href="#DejaVuSans-31" x="39.013672"/>
     <use xlink:href="#DejaVuSans-2c" x="102.636719"/>
     <use xlink:href="#DejaVuSans-31" x="134.423828"/>
     <use xlink:href="#DejaVuSans-29" x="198.046875"/>
    </g>
   </g>
   <g id="text_20">
    <!-- 19 -->
    <g transform="translate(115.191333 256.427824) scale(0.04 -0.04)">
     <use xlink:href="#DejaVuSans-31"/>
     <use xlink:href="#DejaVuSans-39" x="63.623047"/>
    </g>
    <!-- (1,3) -->
    <g transform="translate(112.995083 260.906949) scale(0.04 -0.04)">
     <use xlink:href="#DejaVuSans-28"/>
     <use xlink:href="#DejaVuSans-31" x="39.013672"/>
     <use xlink:href="#DejaVuSans-2c" x="102.636719"/>
     <use xlink:href="#DejaVuSans-33" x="134.423828"/>
     <use xlink:href="#DejaVuSans-29" x="198.046875"/>
    </g>
   </g>
   <g id="text_21">
    <!-- 20 -->
    <g transform="translate(166.208103 256.427824) scale(0.04 -0.04)">
     <use xlink:href="#DejaVuSans-32"/>
     <use xlink:href="#DejaVuSans-30" x="63.623047"/>
    </g>
    <!-- (1,5) -->
    <g transform="translate(164.011853 260.906949) scale(0.04 -0.04)">
     <use xlink:href="#DejaVuSans-28"/>
     <use xlink:href="#DejaVuSans-31" x="39.013672"/>
     <use xlink:href="#DejaVuSans-2c" x="102.636719"/>
     <use xlink:href="#DejaVuSans-35" x="134.423828"/>
     <use xlink:href="#DejaVuSans-29" x="198.046875"/>
    </g>
   </g>
   <g id="text_22">
    <!-- 21 -->
    <g transform="translate(217.224872 256.427824) scale(0.04 -0.04)">
     <use xlink:href="#DejaVuSans-32"/>
     <use xlink:href="#DejaVuSans-31" x="63.623047"/>
    </g>
    <!-- (1,7) -->
    <g transform="translate(215.028622 260.906949) scale(0.04 -0.04)">
     <use xlink:href="#DejaVuSans-28"/>
     <use xlink:href="#DejaVuSans-31" x="39.013672"/>
     <use xlink:href="#DejaVuSans-2c" x="102.636719"/>
     <use xlink:href="#DejaVuSans-37" x="134.423828"/>
     <use xlink:href="#DejaVuSans-29" x="198.046875"/>
    </g>
   </g>
   <g id="text_23">
    <!-- 22 -->
    <g transform="translate(268.241641 256.427824) scale(0.04 -0.04)">
     <use xlink:href="#DejaVuSans-32"/>
     <use xlink:href="#DejaVuSans-32" x="63.623047"/>
    </g>
    <!-- (1,9) -->
    <g transform="translate(266.045391 260.906949) scale(0.04 -0.04)">
     <use xlink:href="#DejaVuSans-28"/>
     <use xlink:href="#DejaVuSans-31" x="39.013672"/>
     <use xlink:href="#DejaVuSans-2c" x="102.636719"/>
     <use xlink:href="#DejaVuSans-39" x="134.423828"/>
     <use xlink:href="#DejaVuSans-29" x="198.046875"/>
    </g>
   </g>
   <g id="text_24">
    <!-- 23 -->
    <g transform="translate(319.25841 256.427824) scale(0.04 -0.04)">
     <use xlink:href="#DejaVuSans-32"/>
     <use xlink:href="#DejaVuSans-33" x="63.623047"/>
    </g>
    <!-- (1,11) -->
    <g transform="translate(315.78966 260.906949) scale(0.04 -0.04)">
     <use xlink:href="#DejaVuSans-28"/>
     <use xlink:href="#DejaVuSans-31" x="39.013672"/>
     <use xlink:href="#DejaVuSans-2c" x="102.636719"/>
     <use xlink:href="#DejaVuSans-31" x="134.423828"/>
     <use xlink:href="#DejaVuSans-31" x="198.046875"/>
     <use xlink:href="#DejaVuSans-29" x="261.669922"/>
    </g>
   </g>
   <g id="text_25">
    <!-- 24 -->
    <g transform="translate(89.682949 241.700551) scale(0.04 -0.04)">
     <use xlink:href="#DejaVuSans-32"/>
     <use xlink:href="#DejaVuSans-34" x="63.623047"/>
    </g>
    <!-- (2,2) -->
    <g transform="translate(87.486699 246.179676) scale(0.04 -0.04)">
     <use xlink:href="#DejaVuSans-28"/>
     <use xlink:href="#DejaVuSans-32" x="39.013672"/>
     <use xlink:href="#DejaVuSans-2c" x="102.636719"/>
     <use xlink:href="#DejaVuSans-32" x="134.423828"/>
     <use xlink:href="#DejaVuSans-29" x="198.046875"/>
    </g>
   </g>
   <g id="text_26">
    <!-- 25 -->
    <g transform="translate(140.699718 241.700551) scale(0.04 -0.04)">
     <use xlink:href="#DejaVuSans-32"/>
     <use xlink:href="#DejaVuSans-35" x="63.623047"/>
    </g>
    <!-- (2,4) -->
    <g transform="translate(138.503468 246.179676) scale(0.04 -0.04)">
     <use xlink:href="#DejaVuSans-28"/>
     <use xlink:href="#DejaVuSans-32" x="39.013672"/>
     <use xlink:href="#DejaVuSans-2c" x="102.636719"/>
     <use xlink:href="#DejaVuSans-34" x="134.423828"/>
     <use xlink:href="#DejaVuSans-29" x="198.046875"/>
    </g>
   </g>
   <g id="text_27">
    <!-- 26 -->
    <g transform="translate(191.716487 241.700551) scale(0.04 -0.04)">
     <use xlink:href="#DejaVuSans-32"/>
     <use xlink:href="#DejaVuSans-36" x="63.623047"/>
    </g>
    <!-- (2,6) -->
    <g transform="translate(189.520237 246.179676) scale(0.04 -0.04)">
     <use xlink:href="#DejaVuSans-28"/>
     <use xlink:href="#DejaVuSans-32" x="39.013672"/>
     <use xlink:href="#DejaVuSans-2c" x="102.636719"/>
     <use xlink:href="#DejaVuSans-36" x="134.423828"/>
     <use xlink:href="#DejaVuSans-29" x="198.046875"/>
    </g>
   </g>
   <g id="text_28">
    <!-- 27 -->
    <g transform="translate(242.733256 241.700551) scale(0.04 -0.04)">
     <use xlink:href="#DejaVuSans-32"/>
     <use xlink:href="#DejaVuSans-37" x="63.623047"/>
    </g>
    <!-- (2,8) -->
    <g transform="translate(240.537006 246.179676) scale(0.04 -0.04)">
     <use xlink:href="#DejaVuSans-28"/>
     <use xlink:href="#DejaVuSans-32" x="39.013672"/>
     <use xlink:href="#DejaVuSans-2c" x="102.636719"/>
     <use xlink:href="#DejaVuSans-38" x="134.423828"/>
     <use xlink:href="#DejaVuSans-29" x="198.046875"/>
    </g>
   </g>
   <g id="text_29">
    <!-- 28 -->
    <g transform="translate(293.750026 241.700551) scale(0.04 -0.04)">
     <use xlink:href="#DejaVuSans-32"/>
     <use xlink:href="#DejaVuSans-38" x="63.623047"/>
    </g>
    <!-- (2,10) -->
    <g transform="translate(290.281276 246.179676) scale(0.04 -0.04)">
     <use xlink:href="#DejaVuSans-28"/>
     <use xlink:href="#DejaVuSans-32" x="39.013672"/>
     <use xlink:href="#DejaVuSans-2c" x="102.636719"/>
     <use xlink:href="#DejaVuSans-31" x="134.423828"/>
     <use xlink:href="#DejaVuSans-30" x="198.046875"/>
     <use xlink:href="#DejaVuSans-29" x="261.669922"/>
    </g>
   </g>
   <g id="text_30">
    <!-- 29 -->
    <g transform="translate(115.191333 226.973278) scale(0.04 -0.04)">
     <use xlink:href="#DejaVuSans-32"/>
     <use xlink:href="#DejaVuSans-39" x="63.623047"/>
    </g>
    <!-- (2,3) -->
    <g transform="translate(112.995083 231.452403) scale(0.04 -0.04)">
     <use xlink:href="#DejaVuSans-28"/>
     <use xlink:href="#DejaVuSans-32" x="39.013672"/>
     <use xlink:href="#DejaVuSans-2c" x="102.636719"/>
     <use xlink:href="#DejaVuSans-33" x="134.423828"/>
     <use xlink:href="#DejaVuSans-29" x="198.046875"/>
    </g>
   </g>
   <g id="text_31">
    <!-- 30 -->
    <g transform="translate(166.208103 226.973278) scale(0.04 -0.04)">
     <use xlink:href="#DejaVuSans-33"/>
     <use xlink:href="#DejaVuSans-30" x="63.623047"/>
    </g>
    <!-- (2,5) -->
    <g transform="translate(164.011853 231.452403) scale(0.04 -0.04)">
     <use xlink:href="#DejaVuSans-28"/>
     <use xlink:href="#DejaVuSans-32" x="39.013672"/>
     <use xlink:href="#DejaVuSans-2c" x="102.636719"/>
     <use xlink:href="#DejaVuSans-35" x="134.423828"/>
     <use xlink:href="#DejaVuSans-29" x="198.046875"/>
    </g>
   </g>
   <g id="text_32">
    <!-- 31 -->
    <g transform="translate(217.224872 226.973278) scale(0.04 -0.04)">
     <use xlink:href="#DejaVuSans-33"/>
     <use xlink:href="#DejaVuSans-31" x="63.623047"/>
    </g>
    <!-- (2,7) -->
    <g transform="translate(215.028622 231.452403) scale(0.04 -0.04)">
     <use xlink:href="#DejaVuSans-28"/>
     <use xlink:href="#DejaVuSans-32" x="39.013672"/>
     <use xlink:href="#DejaVuSans-2c" x="102.636719"/>
     <use xlink:href="#DejaVuSans-37" x="134.423828"/>
     <use xlink:href="#DejaVuSans-29" x="198.046875"/>
    </g>
   </g>
   <g id="text_33">
    <!-- 32 -->
    <g transform="translate(268.241641 226.973278) scale(0.04 -0.04)">
     <use xlink:href="#DejaVuSans-33"/>
     <use xlink:href="#DejaVuSans-32" x="63.623047"/>
    </g>
    <!-- (2,9) -->
    <g transform="translate(266.045391 231.452403) scale(0.04 -0.04)">
     <use xlink:href="#DejaVuSans-28"/>
     <use xlink:href="#DejaVuSans-32" x="39.013672"/>
     <use xlink:href="#DejaVuSans-2c" x="102.636719"/>
     <use xlink:href="#DejaVuSans-39" x="134.423828"/>
     <use xlink:href="#DejaVuSans-29" x="198.046875"/>
    </g>
   </g>
   <g id="text_34">
    <!-- 33 -->
    <g transform="translate(89.682949 212.246006) scale(0.04 -0.04)">
     <use xlink:href="#DejaVuSans-33"/>
     <use xlink:href="#DejaVuSans-33" x="63.623047"/>
    </g>
    <!-- (3,2) -->
    <g transform="translate(87.486699 216.725131) scale(0.04 -0.04)">
     <use xlink:href="#DejaVuSans-28"/>
     <use xlink:href="#DejaVuSans-33" x="39.013672"/>
     <use xlink:href="#DejaVuSans-2c" x="102.636719"/>
     <use xlink:href="#DejaVuSans-32" x="134.423828"/>
     <use xlink:href="#DejaVuSans-29" x="198.046875"/>
    </g>
   </g>
   <g id="text_35">
    <!-- 34 -->
    <g transform="translate(140.699718 212.246006) scale(0.04 -0.04)">
     <use xlink:href="#DejaVuSans-33"/>
     <use xlink:href="#DejaVuSans-34" x="63.623047"/>
    </g>
    <!-- (3,4) -->
    <g transform="translate(138.503468 216.725131) scale(0.04 -0.04)">
     <use xlink:href="#DejaVuSans-28"/>
     <use xlink:href="#DejaVuSans-33" x="39.013672"/>
     <use xlink:href="#DejaVuSans-2c" x="102.636719"/>
     <use xlink:href="#DejaVuSans-34" x="134.423828"/>
     <use xlink:href="#DejaVuSans-29" x="198.046875"/>
    </g>
   </g>
   <g id="text_36">
    <!-- 35 -->
    <g transform="translate(191.716487 212.246006) scale(0.04 -0.04)">
     <use xlink:href="#DejaVuSans-33"/>
     <use xlink:href="#DejaVuSans-35" x="63.623047"/>
    </g>
    <!-- (3,6) -->
    <g transform="translate(189.520237 216.725131) scale(0.04 -0.04)">
     <use xlink:href="#DejaVuSans-28"/>
     <use xlink:href="#DejaVuSans-33" x="39.013672"/>
     <use xlink:href="#DejaVuSans-2c" x="102.636719"/>
     <use xlink:href="#DejaVuSans-36" x="134.423828"/>
     <use xlink:href="#DejaVuSans-29" x="198.046875"/>
    </g>
   </g>
   <g id="text_37">
    <!-- 36 -->
    <g transform="translate(242.733256 212.246006) scale(0.04 -0.04)">
     <use xlink:href="#DejaVuSans-33"/>
     <use xlink:href="#DejaVuSans-36" x="63.623047"/>
    </g>
    <!-- (3,8) -->
    <g transform="translate(240.537006 216.725131) scale(0.04 -0.04)">
     <use xlink:href="#DejaVuSans-28"/>
     <use xlink:href="#DejaVuSans-33" x="39.013672"/>
     <use xlink:href="#DejaVuSans-2c" x="102.636719"/>
     <use xlink:href="#DejaVuSans-38" x="134.423828"/>
     <use xlink:href="#DejaVuSans-29" x="198.046875"/>
    </g>
   </g>
   <g id="text_38">
    <!-- 37 -->
    <g transform="translate(293.750026 212.246006) scale(0.04 -0.04)">
     <use xlink:href="#DejaVuSans-33"/>
     <use xlink:href="#DejaVuSans-37" x="63.623047"/>
    </g>
    <!-- (3,10) -->
    <g transform="translate(290.281276 216.725131) scale(0.04 -0.04)">
     <use xlink:href="#DejaVuSans-28"/>
     <use xlink:href="#DejaVuSans-33" x="39.013672"/>
     <use xlink:href="#DejaVuSans-2c" x="102.636719"/>
     <use xlink:href="#DejaVuSans-31" x="134.423828"/>
     <use xlink:href="#DejaVuSans-30" x="198.046875"/>
     <use xlink:href="#DejaVuSans-29" x="261.669922"/>
    </g>
   </g>
   <g id="text_39">
    <!-- 38 -->
    <g transform="translate(115.191333 197.518733) scale(0.04 -0.04)">
     <use xlink:href="#DejaVuSans-33"/>
     <use xlink:href="#DejaVuSans-38" x="63.623047"/>
    </g>
    <!-- (3,3) -->
    <g transform="translate(112.995083 201.997858) scale(0.04 -0.04)">
     <use xlink:href="#DejaVuSans-28"/>
     <use xlink:href="#DejaVuSans-33" x="39.013672"/>
     <use xlink:href="#DejaVuSans-2c" x="102.636719"/>
     <use xlink:href="#DejaVuSans-33" x="134.423828"/>
     <use xlink:href="#DejaVuSans-29" x="198.046875"/>
    </g>
   </g>
   <g id="text_40">
    <!-- 39 -->
    <g transform="translate(166.208103 197.518733) scale(0.04 -0.04)">
     <use xlink:href="#DejaVuSans-33"/>
     <use xlink:href="#DejaVuSans-39" x="63.623047"/>
    </g>
    <!-- (3,5) -->
    <g transform="translate(164.011853 201.997858) scale(0.04 -0.04)">
     <use xlink:href="#DejaVuSans-28"/>
     <use xlink:href="#DejaVuSans-33" x="39.013672"/>
     <use xlink:href="#DejaVuSans-2c" x="102.636719"/>
     <use xlink:href="#DejaVuSans-35" x="134.423828"/>
     <use xlink:href="#DejaVuSans-29" x="198.046875"/>
    </g>
   </g>
   <g id="text_41">
    <!-- 40 -->
    <g transform="translate(217.224872 197.518733) scale(0.04 -0.04)">
     <use xlink:href="#DejaVuSans-34"/>
     <use xlink:href="#DejaVuSans-30" x="63.623047"/>
    </g>
    <!-- (3,7) -->
    <g transform="translate(215.028622 201.997858) scale(0.04 -0.04)">
     <use xlink:href="#DejaVuSans-28"/>
     <use xlink:href="#DejaVuSans-33" x="39.013672"/>
     <use xlink:href="#DejaVuSans-2c" x="102.636719"/>
     <use xlink:href="#DejaVuSans-37" x="134.423828"/>
     <use xlink:href="#DejaVuSans-29" x="198.046875"/>
    </g>
   </g>
   <g id="text_42">
    <!-- 41 -->
    <g transform="translate(268.241641 197.518733) scale(0.04 -0.04)">
     <use xlink:href="#DejaVuSans-34"/>
     <use xlink:href="#DejaVuSans-31" x="63.623047"/>
    </g>
    <!-- (3,9) -->
    <g transform="translate(266.045391 201.997858) scale(0.04 -0.04)">
     <use xlink:href="#DejaVuSans-28"/>
     <use xlink:href="#DejaVuSans-33" x="39.013672"/>
     <use xlink:href="#DejaVuSans-2c" x="102.636719"/>
     <use xlink:href="#DejaVuSans-39" x="134.423828"/>
     <use xlink:href="#DejaVuSans-29" x="198.046875"/>
    </g>
   </g>
   <g id="text_43">
    <!-- 42 -->
    <g transform="translate(140.699718 182.79146) scale(0.04 -0.04)">
     <use xlink:href="#DejaVuSans-34"/>
     <use xlink:href="#DejaVuSans-32" x="63.623047"/>
    </g>
    <!-- (4,4) -->
    <g transform="translate(138.503468 187.270585) scale(0.04 -0.04)">
     <use xlink:href="#DejaVuSans-28"/>
     <use xlink:href="#DejaVuSans-34" x="39.013672"/>
     <use xlink:href="#DejaVuSans-2c" x="102.636719"/>
     <use xlink:href="#DejaVuSans-34" x="134.423828"/>
     <use xlink:href="#DejaVuSans-29" x="198.046875"/>
    </g>
   </g>
   <g id="text_44">
    <!-- 43 -->
    <g transform="translate(191.716487 182.79146) scale(0.04 -0.04)">
     <use xlink:href="#DejaVuSans-34"/>
     <use xlink:href="#DejaVuSans-33" x="63.623047"/>
    </g>
    <!-- (4,6) -->
    <g transform="translate(189.520237 187.270585) scale(0.04 -0.04)">
     <use xlink:href="#DejaVuSans-28"/>
     <use xlink:href="#DejaVuSans-34" x="39.013672"/>
     <use xlink:href="#DejaVuSans-2c" x="102.636719"/>
     <use xlink:href="#DejaVuSans-36" x="134.423828"/>
     <use xlink:href="#DejaVuSans-29" x="198.046875"/>
    </g>
   </g>
   <g id="text_45">
    <!-- 44 -->
    <g transform="translate(242.733256 182.79146) scale(0.04 -0.04)">
     <use xlink:href="#DejaVuSans-34"/>
     <use xlink:href="#DejaVuSans-34" x="63.623047"/>
    </g>
    <!-- (4,8) -->
    <g transform="translate(240.537006 187.270585) scale(0.04 -0.04)">
     <use xlink:href="#DejaVuSans-28"/>
     <use xlink:href="#DejaVuSans-34" x="39.013672"/>
     <use xlink:href="#DejaVuSans-2c" x="102.636719"/>
     <use xlink:href="#DejaVuSans-38" x="134.423828"/>
     <use xlink:href="#DejaVuSans-29" x="198.046875"/>
    </g>
   </g>
   <g id="text_46">
    <!-- 45 -->
    <g transform="translate(115.191333 168.064188) scale(0.04 -0.04)">
     <use xlink:href="#DejaVuSans-34"/>
     <use xlink:href="#DejaVuSans-35" x="63.623047"/>
    </g>
    <!-- (4,3) -->
    <g transform="translate(112.995083 172.543313) scale(0.04 -0.04)">
     <use xlink:href="#DejaVuSans-28"/>
     <use xlink:href="#DejaVuSans-34" x="39.013672"/>
     <use xlink:href="#DejaVuSans-2c" x="102.636719"/>
     <use xlink:href="#DejaVuSans-33" x="134.423828"/>
     <use xlink:href="#DejaVuSans-29" x="198.046875"/>
    </g>
   </g>
   <g id="text_47">
    <!-- 46 -->
    <g transform="translate(166.208103 168.064188) scale(0.04 -0.04)">
     <use xlink:href="#DejaVuSans-34"/>
     <use xlink:href="#DejaVuSans-36" x="63.623047"/>
    </g>
    <!-- (4,5) -->
    <g transform="translate(164.011853 172.543312) scale(0.04 -0.04)">
     <use xlink:href="#DejaVuSans-28"/>
     <use xlink:href="#DejaVuSans-34" x="39.013672"/>
     <use xlink:href="#DejaVuSans-2c" x="102.636719"/>
     <use xlink:href="#DejaVuSans-35" x="134.423828"/>
     <use xlink:href="#DejaVuSans-29" x="198.046875"/>
    </g>
   </g>
   <g id="text_48">
    <!-- 47 -->
    <g transform="translate(217.224872 168.064188) scale(0.04 -0.04)">
     <use xlink:href="#DejaVuSans-34"/>
     <use xlink:href="#DejaVuSans-37" x="63.623047"/>
    </g>
    <!-- (4,7) -->
    <g transform="translate(215.028622 172.543313) scale(0.04 -0.04)">
     <use xlink:href="#DejaVuSans-28"/>
     <use xlink:href="#DejaVuSans-34" x="39.013672"/>
     <use xlink:href="#DejaVuSans-2c" x="102.636719"/>
     <use xlink:href="#DejaVuSans-37" x="134.423828"/>
     <use xlink:href="#DejaVuSans-29" x="198.046875"/>
    </g>
   </g>
   <g id="text_49">
    <!-- 48 -->
    <g transform="translate(268.241641 168.064188) scale(0.04 -0.04)">
     <use xlink:href="#DejaVuSans-34"/>
     <use xlink:href="#DejaVuSans-38" x="63.623047"/>
    </g>
    <!-- (4,9) -->
    <g transform="translate(266.045391 172.543313) scale(0.04 -0.04)">
     <use xlink:href="#DejaVuSans-28"/>
     <use xlink:href="#DejaVuSans-34" x="39.013672"/>
     <use xlink:href="#DejaVuSans-2c" x="102.636719"/>
     <use xlink:href="#DejaVuSans-39" x="134.423828"/>
     <use xlink:href="#DejaVuSans-29" x="198.046875"/>
    </g>
   </g>
   <g id="text_50">
    <!-- 49 -->
    <g transform="translate(140.699718 153.336915) scale(0.04 -0.04)">
     <use xlink:href="#DejaVuSans-34"/>
     <use xlink:href="#DejaVuSans-39" x="63.623047"/>
    </g>
    <!-- (5,4) -->
    <g transform="translate(138.503468 157.81604) scale(0.04 -0.04)">
     <use xlink:href="#DejaVuSans-28"/>
     <use xlink:href="#DejaVuSans-35" x="39.013672"/>
     <use xlink:href="#DejaVuSans-2c" x="102.636719"/>
     <use xlink:href="#DejaVuSans-34" x="134.423828"/>
     <use xlink:href="#DejaVuSans-29" x="198.046875"/>
    </g>
   </g>
   <g id="text_51">
    <!-- 50 -->
    <g transform="translate(191.716487 153.336915) scale(0.04 -0.04)">
     <use xlink:href="#DejaVuSans-35"/>
     <use xlink:href="#DejaVuSans-30" x="63.623047"/>
    </g>
    <!-- (5,6) -->
    <g transform="translate(189.520237 157.81604) scale(0.04 -0.04)">
     <use xlink:href="#DejaVuSans-28"/>
     <use xlink:href="#DejaVuSans-35" x="39.013672"/>
     <use xlink:href="#DejaVuSans-2c" x="102.636719"/>
     <use xlink:href="#DejaVuSans-36" x="134.423828"/>
     <use xlink:href="#DejaVuSans-29" x="198.046875"/>
    </g>
   </g>
   <g id="text_52">
    <!-- 51 -->
    <g transform="translate(242.733256 153.336915) scale(0.04 -0.04)">
     <use xlink:href="#DejaVuSans-35"/>
     <use xlink:href="#DejaVuSans-31" x="63.623047"/>
    </g>
    <!-- (5,8) -->
    <g transform="translate(240.537006 157.81604) scale(0.04 -0.04)">
     <use xlink:href="#DejaVuSans-28"/>
     <use xlink:href="#DejaVuSans-35" x="39.013672"/>
     <use xlink:href="#DejaVuSans-2c" x="102.636719"/>
     <use xlink:href="#DejaVuSans-38" x="134.423828"/>
     <use xlink:href="#DejaVuSans-29" x="198.046875"/>
    </g>
   </g>
   <g id="text_53">
    <!-- 52 -->
    <g transform="translate(166.208103 138.609642) scale(0.04 -0.04)">
     <use xlink:href="#DejaVuSans-35"/>
     <use xlink:href="#DejaVuSans-32" x="63.623047"/>
    </g>
    <!-- (5,5) -->
    <g transform="translate(164.011853 143.088767) scale(0.04 -0.04)">
     <use xlink:href="#DejaVuSans-28"/>
     <use xlink:href="#DejaVuSans-35" x="39.013672"/>
     <use xlink:href="#DejaVuSans-2c" x="102.636719"/>
     <use xlink:href="#DejaVuSans-35" x="134.423828"/>
     <use xlink:href="#DejaVuSans-29" x="198.046875"/>
    </g>
   </g>
   <g id="text_54">
    <!-- 53 -->
    <g transform="translate(217.224872 138.609642) scale(0.04 -0.04)">
     <use xlink:href="#DejaVuSans-35"/>
     <use xlink:href="#DejaVuSans-33" x="63.623047"/>
    </g>
    <!-- (5,7) -->
    <g transform="translate(215.028622 143.088767) scale(0.04 -0.04)">
     <use xlink:href="#DejaVuSans-28"/>
     <use xlink:href="#DejaVuSans-35" x="39.013672"/>
     <use xlink:href="#DejaVuSans-2c" x="102.636719"/>
     <use xlink:href="#DejaVuSans-37" x="134.423828"/>
     <use xlink:href="#DejaVuSans-29" x="198.046875"/>
    </g>
   </g>
   <g id="text_55">
    <!-- 54 -->
    <g transform="translate(140.699718 123.882369) scale(0.04 -0.04)">
     <use xlink:href="#DejaVuSans-35"/>
     <use xlink:href="#DejaVuSans-34" x="63.623047"/>
    </g>
    <!-- (6,4) -->
    <g transform="translate(138.503468 128.361494) scale(0.04 -0.04)">
     <use xlink:href="#DejaVuSans-28"/>
     <use xlink:href="#DejaVuSans-36" x="39.013672"/>
     <use xlink:href="#DejaVuSans-2c" x="102.636719"/>
     <use xlink:href="#DejaVuSans-34" x="134.423828"/>
     <use xlink:href="#DejaVuSans-29" x="198.046875"/>
    </g>
   </g>
   <g id="text_56">
    <!-- 55 -->
    <g transform="translate(191.716487 123.882369) scale(0.04 -0.04)">
     <use xlink:href="#DejaVuSans-35"/>
     <use xlink:href="#DejaVuSans-35" x="63.623047"/>
    </g>
    <!-- (6,6) -->
    <g transform="translate(189.520237 128.361494) scale(0.04 -0.04)">
     <use xlink:href="#DejaVuSans-28"/>
     <use xlink:href="#DejaVuSans-36" x="39.013672"/>
     <use xlink:href="#DejaVuSans-2c" x="102.636719"/>
     <use xlink:href="#DejaVuSans-36" x="134.423828"/>
     <use xlink:href="#DejaVuSans-29" x="198.046875"/>
    </g>
   </g>
   <g id="text_57">
    <!-- 56 -->
    <g transform="translate(242.733256 123.882369) scale(0.04 -0.04)">
     <use xlink:href="#DejaVuSans-35"/>
     <use xlink:href="#DejaVuSans-36" x="63.623047"/>
    </g>
    <!-- (6,8) -->
    <g transform="translate(240.537006 128.361494) scale(0.04 -0.04)">
     <use xlink:href="#DejaVuSans-28"/>
     <use xlink:href="#DejaVuSans-36" x="39.013672"/>
     <use xlink:href="#DejaVuSans-2c" x="102.636719"/>
     <use xlink:href="#DejaVuSans-38" x="134.423828"/>
     <use xlink:href="#DejaVuSans-29" x="198.046875"/>
    </g>
   </g>
   <g id="text_58">
    <!-- 57 -->
    <g transform="translate(166.208103 109.155097) scale(0.04 -0.04)">
     <use xlink:href="#DejaVuSans-35"/>
     <use xlink:href="#DejaVuSans-37" x="63.623047"/>
    </g>
    <!-- (6,5) -->
    <g transform="translate(164.011853 113.634222) scale(0.04 -0.04)">
     <use xlink:href="#DejaVuSans-28"/>
     <use xlink:href="#DejaVuSans-36" x="39.013672"/>
     <use xlink:href="#DejaVuSans-2c" x="102.636719"/>
     <use xlink:href="#DejaVuSans-35" x="134.423828"/>
     <use xlink:href="#DejaVuSans-29" x="198.046875"/>
    </g>
   </g>
   <g id="text_59">
    <!-- 58 -->
    <g transform="translate(217.224872 109.155097) scale(0.04 -0.04)">
     <use xlink:href="#DejaVuSans-35"/>
     <use xlink:href="#DejaVuSans-38" x="63.623047"/>
    </g>
    <!-- (6,7) -->
    <g transform="translate(215.028622 113.634222) scale(0.04 -0.04)">
     <use xlink:href="#DejaVuSans-28"/>
     <use xlink:href="#DejaVuSans-36" x="39.013672"/>
     <use xlink:href="#DejaVuSans-2c" x="102.636719"/>
     <use xlink:href="#DejaVuSans-37" x="134.423828"/>
     <use xlink:href="#DejaVuSans-29" x="198.046875"/>
    </g>
   </g>
   <g id="text_60">
    <!-- 59 -->
    <g transform="translate(191.716487 94.427824) scale(0.04 -0.04)">
     <use xlink:href="#DejaVuSans-35"/>
     <use xlink:href="#DejaVuSans-39" x="63.623047"/>
    </g>
    <!-- (7,6) -->
    <g transform="translate(189.520237 98.906949) scale(0.04 -0.04)">
     <use xlink:href="#DejaVuSans-28"/>
     <use xlink:href="#DejaVuSans-37" x="39.013672"/>
     <use xlink:href="#DejaVuSans-2c" x="102.636719"/>
     <use xlink:href="#DejaVuSans-36" x="134.423828"/>
     <use xlink:href="#DejaVuSans-29" x="198.046875"/>
    </g>
   </g>
   <g id="text_61">
    <!-- 60 -->
    <g transform="translate(166.208103 79.700551) scale(0.04 -0.04)">
     <use xlink:href="#DejaVuSans-36"/>
     <use xlink:href="#DejaVuSans-30" x="63.623047"/>
    </g>
    <!-- (7,5) -->
    <g transform="translate(164.011853 84.179676) scale(0.04 -0.04)">
     <use xlink:href="#DejaVuSans-28"/>
     <use xlink:href="#DejaVuSans-37" x="39.013672"/>
     <use xlink:href="#DejaVuSans-2c" x="102.636719"/>
     <use xlink:href="#DejaVuSans-35" x="134.423828"/>
     <use xlink:href="#DejaVuSans-29" x="198.046875"/>
    </g>
   </g>
   <g id="text_62">
    <!-- 61 -->
    <g transform="translate(217.224872 79.700551) scale(0.04 -0.04)">
     <use xlink:href="#DejaVuSans-36"/>
     <use xlink:href="#DejaVuSans-31" x="63.623047"/>
    </g>
    <!-- (7,7) -->
    <g transform="translate(215.028622 84.179676) scale(0.04 -0.04)">
     <use xlink:href="#DejaVuSans-28"/>
     <use xlink:href="#DejaVuSans-37" x="39.013672"/>
     <use xlink:href="#DejaVuSans-2c" x="102.636719"/>
     <use xlink:href="#DejaVuSans-37" x="134.423828"/>
     <use xlink:href="#DejaVuSans-29" x="198.046875"/>
    </g>
   </g>
   <g id="text_63">
    <!-- 62 -->
    <g transform="translate(191.716487 64.973278) scale(0.04 -0.04)">
     <use xlink:href="#DejaVuSans-36"/>
     <use xlink:href="#DejaVuSans-32" x="63.623047"/>
    </g>
    <!-- (8,6) -->
    <g transform="translate(189.520237 69.452403) scale(0.04 -0.04)">
     <use xlink:href="#DejaVuSans-28"/>
     <use xlink:href="#DejaVuSans-38" x="39.013672"/>
     <use xlink:href="#DejaVuSans-2c" x="102.636719"/>
     <use xlink:href="#DejaVuSans-36" x="134.423828"/>
     <use xlink:href="#DejaVuSans-29" x="198.046875"/>
    </g>
   </g>
   <g id="text_64">
    <!-- 63 -->
    <g transform="translate(191.716487 35.518733) scale(0.04 -0.04)">
     <use xlink:href="#DejaVuSans-36"/>
     <use xlink:href="#DejaVuSans-33" x="63.623047"/>
    </g>
    <!-- (9,6) -->
    <g transform="translate(189.520237 39.997858) scale(0.04 -0.04)">
     <use xlink:href="#DejaVuSans-28"/>
     <use xlink:href="#DejaVuSans-39" x="39.013672"/>
     <use xlink:href="#DejaVuSans-2c" x="102.636719"/>
     <use xlink:href="#DejaVuSans-36" x="134.423828"/>
     <use xlink:href="#DejaVuSans-29" x="198.046875"/>
    </g>
   </g>
  </g>
 </g>
 <defs>
  <clipPath id="pe7801676e7">
   <rect x="7.2" y="7.2" width="374.122974" height="324"/>
  </clipPath>
 </defs>
</svg>
